<svg
   width="93.024277mm"
   height="93.024818mm"
   viewBox="0 0 93.024277 93.024818"
   >
  <g
     id="layer1"
     transform="translate(-55.571122,-108.18596)">
    <path
             d="m 102.08301,108.18597 a 46.512333,46.512333 0 0 0 -46.511888,46.51241 46.512333,46.512333 0 0 0 46.511888,46.5124 46.512333,46.512333 0 0 0 46.5124,-46.5124 46.512333,46.512333 0 0 0 -46.5124,-46.51241 z m 0,14.53141 a 31.981003,31.981003 0 0 1 31.98151,31.981 31.981003,31.981003 0 0 1 -31.98151,31.98099 31.981003,31.981003 0 0 1 -31.980992,-31.98099 31.981003,31.981003 0 0 1 31.980992,-31.981 z" />
  </g>
</svg>
