<svg xmlns="http://www.w3.org/2000/svg" viewBox="0 0 312.93 312.93">
  <style>
    .favicon {
      fill: green;
    }

    @media (prefers-color-scheme: dark) {
      .favicon {
        fill: rgb(129, 98, 65);
      }
    }
  </style>
    <path class="favicon" d="M223.13,217.99c-5.11-4.53-12.71-4.74-18.02-.45-6.17,4.98-14.67,10.35-25.6,13.81,0,0-12.62,3.81-25.03,3.57-41.58-.81-75.58-34.63-76.59-76.2-1.07-44.06,34.33-80.12,78.15-80.12,22.99,0,43.66,9.92,57.96,25.72,3.14,3.47,5.97,7.22,8.46,11.21,9.28,14.91,12.81,32.69,10.66,50.12l-1.26,10.21c-.65,11.08,9.52,19.85,20.67,19.85,7.1,0,13.36-3.58,17.08-9.03h0c1.39-5.44,2.39-11.03,2.97-16.74.42-4,.63-8.06.63-12.17,0-28.51-10.19-54.66-27.13-74.97-21.51-25.82-53.92-42.24-90.16-42.2-63.7.06-116.11,51.74-117.04,115.43-.95,65.51,51.87,118.91,117.16,118.91,16.6,0,32.4-3.46,46.71-9.69,2.37-1.03,4.71-2.14,6.99-3.32,1.86-.47,3.84-.67,5.86-.56,9.83.51,17.91,8.49,18.56,18.31.44,6.56-2.35,12.5-6.92,16.38-3.05,1.55-6.17,3.01-9.33,4.35-29,12.41-62.51,16.28-97.37,8.53-57.13-12.7-102.37-57.04-115.94-113.96C-19.99,91.86,57.51,0,156.46,0c59.2,0,110.71,32.87,137.29,81.35,12.23,22.3,19.18,47.9,19.18,75.12,0,61.46-33.73,78.46-50.73,78.46s-30.55-9.38-39.07-16.94Z"/>
</svg>